<svg t="1735201487118" class="icon" viewBox="0 0 1290 1024" version="1.1" xmlns="http://www.w3.org/2000/svg" p-id="6011" data-spm-anchor-id="a313x.search_index.0.i2.beb23a81Tw4JFw" width="200" height="200"><path d="M551.371248 984.91423v-7.211442c4.691782-0.347539 9.122909-0.781964 13.467152-1.216388v-3.996703c-4.170473 0.347539-8.688485 0.781964-13.467152 1.129503v-8.080291h14.249116v-3.909818h-14.249116v-6.168824h-4.431127v6.168824h-12.250763c2.519661-3.127855 4.865552-6.863903 7.124557-11.034376h24.240873v-4.344242h-22.068752c0.695079-1.650812 1.477042-3.388509 2.259006-5.213091l-4.691781-0.781964c-0.868848 2.085236-1.650812 4.083588-2.519661 5.995055H526.522182v4.344242h10.339297c-2.432776 4.431127-4.952436 8.167176-7.732752 11.121261l0.955734 3.822933h16.85566v8.42783c-5.995055 0.347539-12.424533 0.695079-19.288436 1.042619l0.608194 4.170472c6.429479-0.347539 12.685188-0.695079 18.680242-1.129503v6.863903h4.431127z m42.226037 0.17377v-19.549091h9.731103v-4.257357h-26.673649v-10.165528c9.470448-1.042618 17.463855-2.954085 23.893334-5.908169l-3.127855-3.475394c-6.342594 2.954085-14.683539 4.865552-25.022836 5.821284v13.032728c-0.260655 8.080291-2.432776 15.031079-6.429479 20.939248l3.301624 3.388509c3.822933-5.473745 6.168824-11.903224 7.037673-19.375321h12.685188v19.549091h4.604897z m-51.262061 35.014594v-3.736049h45.8752v3.736049h4.691782v-31.973624h-55.258764v31.973624h4.691782z m45.8752-19.809746h-45.8752v-8.167175h45.8752v8.167175z m0 11.99011h-45.8752v-7.993406h45.8752v7.993406z m27.629382 7.385212c12.076994-5.386861 20.765479-12.772073 26.065455-22.155637 2.954085-5.56063 5.213091-12.076994 6.603248-19.72286h8.254061v33.190012c0 5.126206 2.519661 7.732752 7.558982 7.732751h14.336c3.475394 0 6.081939-0.781964 7.645866-2.259006 1.911467-1.911467 3.214739-6.863903 3.822934-14.857309l-4.431128-1.477042c-0.434424 6.863903-1.303273 11.034376-2.69343 12.424533-1.042618 1.129503-2.780315 1.737697-5.299976 1.737697h-11.990109c-2.8672 0-4.257358-1.477042-4.257357-4.257357v-32.234279h27.542496v-4.604897h-39.79326c0.695079-5.039321 1.129503-10.426182 1.216388-16.160582V950.768485h31.278545v-4.691782h-61.514473v4.691782h25.457261v6.255709a132.927612 132.927612 0 0 1-1.216388 16.160582h-30.235927v4.604897h29.453964c-1.216388 5.995055-2.8672 11.29503-5.126206 15.986812-5.039321 9.209794-13.467152 16.421236-25.457261 21.721212l2.780315 4.170473z m103.132315-60.645625l3.301624-3.301624c-3.736048-4.344242-8.340945-8.6016-13.81469-12.945842l-3.21474 3.127854c5.7344 4.604897 10.339297 8.949139 13.727806 13.119612z m9.731103 15.117964c8.688485-5.039321 13.119612-12.250764 13.119612-21.547442v-3.562279h18.593358v15.639273c0 4.604897 2.345891 6.950788 7.211442 6.950787h9.209794v-4.344242h-8.25406c-2.345891 0-3.475394-1.129503-3.475394-3.388509v-19.288436h-27.976921v8.42783c0 7.558982-3.909818 13.380267-11.64257 17.550739l3.214739 3.562279z m-16.768776 42.573576a125.263127 125.263127 0 0 0 16.855661-13.380267l-1.216388-5.039321a140.883782 140.883782 0 0 1-11.12126 9.731103v-39.96703h-17.290085v4.604897h12.598303v36.491636c0 1.216388-0.608194 2.259006-1.650812 3.301624l1.824581 4.257358z m64.468558 3.388509l2.519661-3.996703c-9.036024-3.301624-16.595006-7.211442-22.676946-11.64257 6.777018-5.995055 11.555685-13.293382 14.50977-21.981866v-4.344243h-40.748994v4.518012h4.604897c2.519661 8.080291 7.385212 15.291733 14.50977 21.547443-6.603248 4.865552-14.944194 8.862255-24.935952 11.990109l2.606546 3.909818c10.339297-3.127855 19.027782-7.385212 26.065454-12.772073 6.255709 4.778667 14.075345 9.036024 23.545794 12.772073z m-23.893333-18.593358c-6.429479-5.473745-10.860606-11.729455-13.293382-18.854012h26.847418c-2.8672 7.211442-7.385212 13.467152-13.554036 18.854012z m35.449018-18.680242c14.50977-2.432776 27.108073-6.342594 37.708024-11.729455 10.165527 5.126206 22.503176 8.77537 37.012946 10.947491l2.172121-4.257357c-13.380267-1.737697-25.022836-4.778667-34.75394-9.122909 8.167176-4.865552 15.117964-10.686836 20.765479-17.637625v-3.649163h-36.144097c1.650812-2.085236 3.214739-4.257358 4.604897-6.516364l-4.691782-1.042618c-6.081939 9.209794-14.249115 16.855661-24.501527 22.9376l3.04097 3.649164c4.604897-2.8672 8.862255-6.081939 12.772073-9.557334 4.257358 4.518012 9.383564 8.42783 15.291733 11.81634-10.078642 4.691782-21.808097 8.080291-35.362133 10.078642l2.085236 4.083588z m37.621139-16.334352c-6.603248-3.475394-12.163879-7.558982-16.768775-12.424533 0.695079-0.781964 1.477042-1.563927 2.34589-2.432776h33.885091c-5.386861 5.7344-11.816339 10.686836-19.462206 14.857309z m-22.242521 53.521067v-4.170473h44.311273v4.170473h4.518012v-37.186715h-53.347297v37.186715h4.518012z m19.809746-22.676945h-19.809746v-10.339297h19.809746v10.339297z m24.501527 0h-19.983515v-10.339297h19.983515v10.339297z m-24.501527 14.336h-19.809746v-10.339297h19.809746v10.339297z m24.501527 0h-19.983515v-10.339297h19.983515v10.339297z" fill="#8B8B8B" p-id="6012"></path><path d="M94.754133 777.507685c2.991321 0 6.733576-2.246594 6.733576-6.733576 0-2.991321-2.246594-6.733576-6.733576-6.733576h-32.166012c-2.991321 0-6.733576 2.246594-6.733576 6.733576 0 2.991321 2.246594 6.733576 6.733576 6.733576h32.166012z m607.449212 0c2.991321 0 6.733576-2.246594 6.733576-6.733576 0-2.991321-2.246594-6.733576-6.733576-6.733576H124.679758c-2.991321 0-6.733576 2.246594-6.733576 6.733576 0 2.991321 2.246594 6.733576 6.733576 6.733576h577.523587z m63.587297 0c2.991321 0 6.733576-2.246594 6.733576-6.733576 0-2.991321-2.246594-6.733576-6.733576-6.733576h-32.166012c-2.997527 0-6.733576 2.246594-6.733575 6.733576 0 2.991321 2.240388 6.733576 6.733575 6.733576h32.166012z m518.423273 0c2.991321 0 6.733576-2.246594 6.733576-6.733576 0-2.991321-2.246594-6.733576-6.733576-6.733576h-32.166012c-2.991321 0-6.733576 2.246594-6.733576 6.733576 0 2.991321 2.246594 6.733576 6.733576 6.733576h32.166012z m-62.091636 0c2.991321 0 6.733576-2.246594 6.733576-6.733576 0-2.991321-2.246594-6.733576-6.733576-6.733576h-418.182982c-2.991321 0-6.72737 2.246594-6.72737 6.733576 0 2.991321 2.240388 6.733576 6.72737 6.733576h418.182982zM551.08577 853.8112c2.997527 0 6.733576-2.240388 6.733575-6.733576 0-2.991321-2.240388-6.733576-6.733575-6.733576h-32.166012c-2.991321 0-6.733576 2.246594-6.733576 6.733576 0 2.991321 2.246594 6.733576 6.733576 6.733576h32.166012z m396.486594 0c2.997527 0 6.733576-2.240388 6.733575-6.733576 0-2.991321-2.240388-6.733576-6.733575-6.733576h-14.211879c-2.991321 0-6.733576 2.246594-6.733576 6.733576 0 2.991321 2.246594 6.733576 6.733576 6.733576h14.211879z m-45.633164 0c2.997527 0 6.733576-2.240388 6.733576-6.733576 0-2.991321-2.240388-6.733576-6.733576-6.733576H589.991564c-2.997527 0-6.733576 2.246594-6.733576 6.733576 0 2.991321 2.240388 6.733576 6.733576 6.733576h311.947636zM1145.818764 853.8112c2.991321 0 6.733576-2.240388 6.733575-6.733576 0-2.991321-2.246594-6.733576-6.733575-6.733576h-169.816437c-2.991321 0-6.733576 2.246594-6.733575 6.733576 0 2.991321 2.246594 6.733576 6.733575 6.733576h169.816437z" fill="#CCCCCC" p-id="6013"></path><path d="M474.906376 181.347297c0 5.9392 2.997527 11.29503 8.378182 14.267733 4.797285 2.966497 11.381915 2.966497 16.762569 0 4.778667-2.972703 8.371976-8.316121 8.371976-14.267733 0-8.918109-7.776194-16.650861-16.750158-16.650861s-16.756364 7.732752-16.756363 16.650861z m652.939636-24.3712c-13.175467 0-23.3472 10.699248-23.3472 23.775418 0 13.094788 10.177939 23.781624 23.3472 23.781624s23.3472-10.699248 23.3472-23.781624c0.589576-13.088582-10.177939-23.775418-23.3472-23.775418z m0 41.022061a17.947927 17.947927 0 0 1-17.947927-17.836219c0-10.122085 8.36577-17.842424 17.947927-17.842424 9.582158 0.595782 17.352145 8.328533 17.947927 17.842424 0 10.103467-7.776194 17.836218-17.947927 17.836219z m62.240582 175.991466s-11.977697 39.842909-35.306279 45.775903c0 0 29.323636 11.903224 35.306279 41.636461 0 0 4.182885-42.821818 38.905794-43.4176 0-0.589576-37.112242-20.213139-38.912-43.994764zM502.436461 66.603442s3.593309-32.718352 29.329842-33.307927c0 0.589576-28.734061-14.863515-29.329842-33.295515 0 0-8.973964 30.918594-27.530085 35.089067 0 0 22.739006 8.905697 27.530085 31.508169z m724.762375 241.974303s-4.189091 14.875927-13.175466 17.252849c0 0 10.767515 4.164267 13.175466 15.459297 0 0 1.793552-16.055079 14.354619-16.055079 0 0-13.765042-7.732752-14.354619-16.657067zM13.169261 350.872048S8.986376 365.729358 0 368.124897c0 0 10.767515 4.158061 13.169261 15.453091 0 0 1.799758-16.061285 14.360824-16.061285 0 0-13.765042-7.720339-14.360824-16.644655zM310.929842 249.731879s-8.973964 30.906182-27.530084 35.089066c0 0 22.739006 8.905697 27.530084 31.495758 0 0 3.587103-32.693527 29.323637-33.289309 0 0-28.734061-14.869721-29.323637-33.295515z m724.75617 308.565333s-4.182885 14.875927-13.16926 17.252849c0 0 10.767515 4.158061 13.16926 15.453091 0 0 1.799758-16.061285 14.360824-16.061285 0 0-13.765042-7.720339-14.360824-16.638449z" fill="#CCCCCC" p-id="6014"></path><path d="M558.129648 448.673358h280.091928c4.238739 0 8.192 2.190739 10.513066 5.82749l80.107831 125.362425c1.346715 2.103855 2.060412 4.561455 2.060412 7.074909v177.753988c0 7.124558-5.635103 12.9024-12.579685 12.9024H478.028024c-6.950788 0-12.579685-5.777842-12.579685-12.9024V586.931976c0-2.507248 0.713697-4.964848 2.054206-7.068703l80.107831-125.362425a12.499006 12.499006 0 0 1 10.519272-5.833696z" fill="#F5F5F5" p-id="6015"></path><path d="M835.099927 442.467297H555.057648c-5.299976 0-10.24 2.736873-13.144436 7.279709L461.811588 575.022545c-1.675636 2.618958-2.569309 5.690958-2.569309 8.825019V761.483636c0 4.275976 1.657018 8.378182 4.604897 11.394328 2.947879 3.022352 6.950788 4.716606 11.115054 4.716606h440.220703c4.164267 0 8.167176-1.694255 11.108849-4.716606A16.321939 16.321939 0 0 0 930.909091 761.483636V583.847564c0-3.134061-0.893673-6.206061-2.575515-8.825019l-80.0768-125.275539a15.626861 15.626861 0 0 0-13.156849-7.279709z m-280.042279 6.441891h280.042279c3.177503 0 6.144 1.644606 7.881697 4.369067l80.095418 125.275539c1.005382 1.570133 1.545309 3.413333 1.54531 5.29377V761.483636c0 5.337212-4.226327 9.669042-9.433213 9.669043H474.968436c-5.213091 0-9.433212-4.325624-9.433212-9.669043V583.847564c0-1.880436 0.533721-3.723636 1.545309-5.29377l80.089212-125.275539a9.371152 9.371152 0 0 1 7.887903-4.369067z" fill="#CCCCCC" p-id="6016"></path><path d="M551.855321 324.552145h286.434521c6.590836 0 11.934255 5.56063 11.934255 12.412122v335.127272c0.006206 3.283006-1.247418 6.435685-3.487806 8.762958-2.234182 2.327273-5.275152 3.636752-8.446449 3.649164H551.855321c-3.171297-0.006206-6.206061-1.321891-8.452654-3.649164a12.616921 12.616921 0 0 1-3.4816-8.762958v-335.127272c0-6.851491 5.337212-12.412121 11.934254-12.412122z" fill="#FFFFFF" fill-opacity=".726" p-id="6017"></path><path d="M854.742109 326.773915l-5.510982 2.954085a8.793988 8.793988 0 0 0-7.838254-4.964848v-6.417067c5.672339 0 10.786133 3.289212 13.34303 8.42783z m1.688049 24.216049h-6.206061v-12.846546h6.206061v12.846546z m0 23.123781h-6.206061v-12.846545h6.206061v12.846545z m0 23.129988h-6.206061v-12.846545h6.206061v12.846545z m0 23.123782h-6.206061v-12.846545h6.206061v12.846545z m0 23.123782h-6.206061v-12.846545h6.206061v12.846545z m0 23.123782h-6.206061v-12.846546h6.206061v12.846546z m0 23.129988h-6.206061v-12.846546h6.206061v12.846546z m0 23.123781h-6.206061v-12.846545h6.206061v12.846545z m0 23.123782h-6.206061v-12.846545h6.206061v12.846545z m0 23.129988h-6.206061v-12.846545h6.206061v12.846545z m0 23.123782h-6.206061v-12.846545h6.206061v12.846545z m0 23.123782h-6.206061v-12.846546h6.206061v12.846546z m0 23.129988h-6.206061v-12.846546h6.206061v12.846546z m0 23.123782h-6.206061v-12.846546h6.206061v12.846546z m-1.675637 24.427054l-5.523394-2.947879c0.657842-1.303273 0.99297-2.749285 0.99297-4.220121v-6.988024h6.206061v6.988024c0 2.525867-0.577164 4.971055-1.675637 7.168z m-23.061721 8.452655v-6.429479h9.700073c0.651636 0 1.284655-0.062061 1.90526-0.211006l1.340509 6.268121c-1.05503 0.248242-2.147297 0.372364-3.245769 0.372364h-9.700073z m-22.341818 0v-6.429479h12.412121v6.429479h-12.412121z m-22.341818 0v-6.429479h12.412121v6.429479h-12.412121z m-22.341819 0v-6.429479h12.412122v6.429479h-12.412122z m-22.341818 0v-6.429479h12.412121v6.429479h-12.412121z m-22.341818 0v-6.429479h12.412121v6.429479h-12.412121z m-22.341818 0v-6.429479h12.412121v6.429479h-12.412121z m-22.341818 0v-6.429479h12.412121v6.429479h-12.412121z m-22.341818 0v-6.429479h12.412121v6.429479h-12.412121z m-22.341819 0v-6.429479h12.412122v6.429479h-12.412122z m-22.341818 0v-6.429479h12.412121v6.429479h-12.412121z m-22.341818 0v-6.429479h12.412121v6.429479h-12.412121z m-22.341818 0v-6.429479h12.412121v6.429479h-12.412121z m-22.652121-9.960728l5.784048-2.327272c1.191564 3.183709 3.996703 5.442715 7.279709 5.808872l-0.670254 6.386037a15.142788 15.142788 0 0 1-12.393503-9.867637z m-1.017794-24.02366h6.20606v12.846545h-6.20606v-12.846545z m0-23.123782h6.20606v12.846545h-6.20606v-12.846545z m0-23.129988h6.20606v12.846545h-6.20606v-12.846545z m0-23.123782h6.20606v12.846546h-6.20606v-12.846546z m0-23.123782h6.20606v12.846546h-6.20606v-12.846546z m0-23.129987h6.20606v12.846545h-6.20606v-12.846545z m0-23.123782h6.20606v12.846545h-6.20606v-12.846545z m0-23.123782h6.20606v12.846545h-6.20606v-12.846545z m0-23.129988h6.20606v12.846545h-6.20606v-12.846545z m0-23.123782h6.20606v12.846546h-6.20606v-12.846546z m0-23.123782h6.20606v12.846546h-6.20606v-12.846546z m0-23.123781h6.20606v12.846545h-6.20606v-12.846545z m0-23.129988h6.20606v12.846545h-6.20606v-12.846545z m0-23.123782h6.20606v12.846545h-6.20606v-12.846545z m2.532072-24.600824l5.163443 3.562278c-0.974352 1.514279-1.489455 3.289212-1.489455 5.113794v5.647515h-6.20606v-5.647515c0-3.127855 0.887467-6.125382 2.532072-8.669866v-0.006206z m23.496146-6.938376v6.423273h-11.071612c-0.353745 0-0.701285 0.024824-1.055031 0.074472l-0.775757-6.373624c0.601988-0.074473 1.203976-0.124121 1.81217-0.124121h11.096436-0.006206z m22.341818 0v6.423273h-12.412121v-6.423273h12.412121z m22.341818 0v6.423273h-12.412121v-6.423273h12.412121z m22.341818 0v6.423273h-12.412121v-6.423273h12.412121z m22.341819 0v6.423273h-12.412122v-6.423273h12.412122z m22.341818 0v6.423273h-12.412121v-6.423273h12.412121z m22.341818 0v6.423273h-12.412121v-6.423273h12.412121z m22.341818 0v6.423273h-12.412121v-6.423273h12.412121z m22.341818 0v6.423273h-12.412121v-6.423273h12.412121z m22.341818 0v6.423273h-12.412121v-6.423273h12.412121z m22.341819 0v6.423273h-12.412122v-6.423273h12.412122z m22.341818 0v6.423273h-12.412121v-6.423273h12.412121z m22.341818 0v6.423273h-12.412121v-6.423273h12.412121z" fill="#CCCCCC" p-id="6018"></path><path d="M471.735079 585.206691h139.052994c6.950788 0 12.579685 5.740606 12.579685 12.821721v16.172994c0 7.087321 5.635103 12.827927 12.579684 12.827927h124.45634c6.950788 0 12.579685-5.740606 12.579685-12.827927v-16.172994c0-7.081115 5.628897-12.821721 12.579685-12.821721h139.046787c3.475394 0 6.292945 2.8672 6.292946 6.410861v179.559951c0 1.700461-0.664048 3.332655-1.8432 4.530424-1.179152 1.210182-2.780315 1.886642-4.449746 1.886643H471.735079c-1.663224 0-3.264388-0.682667-4.44354-1.880437a6.479127 6.479127 0 0 1-1.8432-4.530424V591.611345c0-1.700461 0.664048-3.332655 1.8432-4.530424 1.179152-1.210182 2.780315-1.880436 4.44354-1.880436z" fill="#FFFFFF" p-id="6019"></path><path d="M607.697455 579.00063H468.681697c-5.213091 0-9.433212 4.3008-9.433212 9.606982v179.37377c0 5.306182 4.220121 9.613188 9.433212 9.613188h452.794182c5.213091 0 9.433212-4.307006 9.433212-9.613188V588.607612c0-5.306182-4.220121-9.606982-9.433212-9.606982h-139.02817c-8.682279 0-15.719952 7.168-15.719951 16.011637v16.160581c0 5.306182-4.220121 9.606982-9.433213 9.606982h-124.431515c-5.213091 0-9.433212-4.3008-9.433212-9.606982v-16.160581c0-4.244945-1.657018-8.316121-4.604897-11.326061a15.577212 15.577212 0 0 0-11.115054-4.685576zM468.681697 585.405285H607.697455c5.213091 0 9.433212 4.3008 9.433212 9.606982v16.160581c0 4.244945 1.650812 8.316121 4.604897 11.319855a15.577212 15.577212 0 0 0 11.115054 4.691782h124.431515a15.577212 15.577212 0 0 0 11.115055-4.691782c2.947879-3.003733 4.604897-7.074909 4.604897-11.319855v-16.160581c0-5.306182 4.220121-9.606982 9.433212-9.606982h139.02817c1.737697 0 3.146473 1.427394 3.146472 3.202327v179.37377a3.233358 3.233358 0 0 1-0.924703 2.265212 3.115442 3.115442 0 0 1-2.221769 0.937115h-452.794182a3.115442 3.115442 0 0 1-2.22177-0.930909 3.233358 3.233358 0 0 1-0.924703-2.271418V588.607612c0-0.85023 0.335127-1.663224 0.924703-2.265212a3.115442 3.115442 0 0 1 2.22177-0.937115z" fill="#CCCCCC" p-id="6020"></path></svg>