<svg t="1734488300990" class="icon" viewBox="0 0 1024 1024" version="1.1" xmlns="http://www.w3.org/2000/svg" p-id="15558" width="256" height="256"><path d="M588.427636 170.658909a116.433455 116.433455 0 0 0-5.469091 54.877091h-220.904727a25.6 25.6 0 0 0-25.437091 22.807273l-0.162909 2.792727v197.213091h351.092364v-123.042909a116.224 116.224 0 0 0 54.830545-8.098909l0.023273 131.141818h90.973091c33.163636 0 60.509091 28.090182 62.510545 63.232l0.116364 4.096v234.961454c0 35.677091-26.135273 65.093818-58.833455 67.211637l-3.793454 0.139636H748.218182v-59.485091c0-17.082182-16.081455-31.255273-36.352-32.768l-3.630546-0.139636H315.741091c-20.759273 0-37.957818 13.195636-39.796364 29.928727l-0.186182 2.978909v59.485091H190.626909c-33.163636 0-60.509091-28.113455-62.510545-63.232l-0.116364-4.096V515.700364c0-35.677091 26.135273-65.093818 58.833455-67.234909l3.793454-0.116364H281.6V251.112727a80.546909 80.546909 0 0 1 76.055273-80.314182l4.421818-0.139636h226.350545z m126.394182 572.346182v40.238545h-405.643636v-40.238545h405.643636z m94.766546-192.930909a35.188364 35.188364 0 0 0-3.188364 70.283636l3.188364 0.139637 3.211636-0.139637a35.211636 35.211636 0 0 0 31.860364-31.860363l0.139636-3.211637-0.139636-3.188363a35.211636 35.211636 0 0 0-35.072-32z m-170.053819-198.376727a27.438545 27.438545 0 0 1 2.792728 54.714181l-2.792728 0.139637H384.465455a27.438545 27.438545 0 0 1-2.792728-54.714182l2.792728-0.139636h255.06909zM384.465455 264.843636h211.386181c5.236364 9.658182 11.938909 18.594909 20.130909 26.763637 9.774545 9.774545 20.596364 17.454545 32.512 23.04l4.072728 1.745454-3.025455 1.396364a27.229091 27.229091 0 0 1-6.516363 1.698909l-3.49091 0.209455H384.465455a27.438545 27.438545 0 0 1-2.792728-54.714182l2.792728-0.139637zM698.414545 116.363636a94.72 94.72 0 0 1 35.002182 6.749091c11.403636 4.468364 21.643636 11.287273 30.72 20.386909 9.122909 9.122909 15.918545 19.386182 20.410182 30.789819a94.999273 94.999273 0 0 1 0 70.120727c-4.491636 11.403636-11.287273 21.643636-20.386909 30.766545a90.996364 90.996364 0 0 1-30.743273 20.526546 93.393455 93.393455 0 0 1-70.144 0 90.717091 90.717091 0 0 1-30.859636-20.526546 91.112727 91.112727 0 0 1-20.48-30.766545 93.696 93.696 0 0 1 0-70.120727c4.538182-11.403636 11.380364-21.643636 20.48-30.789819A89.390545 89.390545 0 0 1 663.272727 123.112727c11.450182-4.491636 23.156364-6.725818 35.141818-6.725818z m32.744728 45.312a14.685091 14.685091 0 0 0-10.775273 4.491637l-22.411636 22.225454-21.783273-21.806545a16.779636 16.779636 0 0 0-10.24-4.794182 12.613818 12.613818 0 0 0-10.24 3.723636 14.848 14.848 0 0 0-4.491636 10.914909c0 4.282182 1.489455 7.912727 4.468363 10.891637l21.783273 21.806545-21.783273 21.806546a14.731636 14.731636 0 0 0-4.468363 10.798545c0 4.189091 1.489455 7.796364 4.468363 10.798546a12.334545 12.334545 0 0 0 10.24 3.956363 16.337455 16.337455 0 0 0 10.263273-5.026909l21.783273-21.806545 22.411636 22.434909a14.685091 14.685091 0 0 0 10.775273 4.491636c4.189091 0 7.796364-1.489455 10.798545-4.491636a12.381091 12.381091 0 0 0 3.956364-10.24 16.360727 16.360727 0 0 0-5.026909-10.263273l-22.411637-22.458182 22.411637-22.434909a16.360727 16.360727 0 0 0 5.003636-10.263273 12.381091 12.381091 0 0 0-3.956364-10.24 14.685091 14.685091 0 0 0-10.775272-4.514909z" fill="#cdcdcd" p-id="15559"></path></svg>