<svg t="1734488613184" class="icon" viewBox="0 0 1068 1024" version="1.1" xmlns="http://www.w3.org/2000/svg" p-id="23871" width="256" height="256"><path d="M977.697391 587.464348a257.246609 257.246609 0 0 0-323.005217 390.277565H89.043478a89.043478 89.043478 0 0 1-89.043478-89.043478V89.043478a89.043478 89.043478 0 0 1 89.043478-89.043478h799.610435a89.043478 89.043478 0 0 1 89.043478 89.043478v498.42087z m-245.670956-415.833044a789.860174 789.860174 0 0 0-484.307478 0A98.838261 98.838261 0 0 0 186.056348 228.841739a105.293913 105.293913 0 0 0 2.226087 85.303652l77.378782 163.305739C282.401391 512.845913 316.549565 534.26087 353.101913 534.26087c7.257043 0 14.469565-0.845913 21.548522-2.493218l0.489739-0.133565A475.314087 475.314087 0 0 1 489.73913 517.787826h1.335653l45.723826 2.80487c22.706087 2.048 45.278609 5.787826 67.494956 11.130434l0.400696 0.044522c7.123478 1.691826 14.469565 2.537739 21.815652 2.493218 36.59687 0 70.611478-21.370435 87.262609-56.854261l77.378782-163.172174c12.777739-26.713043 13.623652-57.789217 2.404174-85.214609a98.838261 98.838261 0 0 0-61.529043-57.388522z m-4.051478 111.170783l-77.467827 163.439304v0.133566c-5.609739 11.931826-17.808696 18.298435-29.740521 15.582608-24.041739-5.787826-48.439652-9.928348-73.015652-12.377043l82.142608-145.14087a36.285217 36.285217 0 0 0-12.866782-48.973913 34.726957 34.726957 0 0 0-47.994435 13.178435l-100.708174 177.819826c-36.953043 1.380174-73.594435 6.589217-109.523478 15.449043-11.931826 2.671304-24.219826-3.739826-29.829566-15.671652l-77.467826-163.394782a32.367304 32.367304 0 0 1-0.667826-26.223305 28.271304 28.271304 0 0 1 17.497044-16.517565l0.356174-0.133565a718.447304 718.447304 0 0 1 442.278956 0l0.267131 0.089043a28.271304 28.271304 0 0 1 17.408 16.562087 32.322783 32.322783 0 0 1-0.667826 26.178783zM868.173913 788.925217l-69.409391-69.409391a24.531478 24.531478 0 0 0-34.726957 34.726957l69.453913 69.409391-69.453913 69.409391a24.531478 24.531478 0 0 0 34.726957 34.726957l69.409391-69.453913 69.409391 69.453913a24.531478 24.531478 0 0 0 34.726957-34.726957l-69.453913-69.409391 69.453913-69.409391a24.531478 24.531478 0 0 0-34.726957-34.726957l-69.409391 69.453913z m0-165.620869a200.347826 200.347826 0 1 1 0 400.695652 200.347826 200.347826 0 0 1 0-400.695652z" fill="#cdcdcd" p-id="23872"></path></svg>